<svg width="23" height="19" viewBox="0 0 23 19" fill="none" xmlns="http://www.w3.org/2000/svg">
<path d="M21.4978 10.7823H3.89781V4.04905C3.89696 3.79548 3.95774 3.54429 4.07664 3.31002C4.19554 3.07576 4.37019 2.86306 4.59049 2.68426L4.60882 2.66929C4.95407 2.38793 5.39733 2.20043 5.87805 2.13239C6.35876 2.06435 6.8535 2.1191 7.29466 2.28916C6.87802 2.85453 6.70484 3.51732 6.80265 4.17222C6.90046 4.82713 7.26364 5.43656 7.83448 5.90369L8.3364 6.31334L7.41254 7.06739L8.44957 7.91376L9.37343 7.15975L14.4925 2.98187L15.4164 2.22785L14.3793 1.38144L13.4554 2.13546L12.9535 1.72581C12.3525 1.23673 11.5604 0.935235 10.7151 0.873878C9.86972 0.812521 9.02481 0.995188 8.32756 1.39005C7.59231 1.01108 6.72099 0.847478 5.85675 0.926115C4.99251 1.00475 4.18673 1.32095 3.5718 1.82277L3.55347 1.83773C3.19653 2.12745 2.91356 2.47207 2.72091 2.85164C2.52826 3.23121 2.42977 3.6382 2.43114 4.04905V10.7823H0.964478V11.9793H2.43114V13.1277C2.43111 13.2242 2.45018 13.3201 2.48761 13.4116L3.85198 16.7521C3.92479 16.9309 4.06479 17.0865 4.2521 17.1967C4.43942 17.3069 4.66451 17.3661 4.89542 17.366H5.48667L4.95198 18.8622H6.47974L7.01448 17.366H16.5524L17.1024 18.8622H18.6332L18.0832 17.366H19.0334C19.2643 17.3661 19.4894 17.3069 19.6768 17.1967C19.8641 17.0865 20.0042 16.9309 20.077 16.7521L21.4413 13.4116C21.4787 13.3201 21.4978 13.2242 21.4978 13.1277V11.9793H22.9645V10.7823H21.4978ZM8.87164 2.57222C9.27571 2.24316 9.82321 2.05835 10.394 2.05835C10.9648 2.05835 11.5123 2.24316 11.9164 2.57222L12.4182 2.98187L9.37356 5.46678L8.87164 5.05721C8.46848 4.72742 8.24206 4.28058 8.24206 3.81471C8.24206 3.34885 8.46848 2.90201 8.87164 2.57222ZM20.0311 13.0791L18.7693 16.1689H5.15969L3.89781 13.0791V11.9793H20.0311V13.0791Z" fill="#828282"/>
</svg>
