<svg width="199" height="53" viewBox="0 0 199 53" fill="none" xmlns="http://www.w3.org/2000/svg">
<path d="M85.26 36.12V41H68.04V11.98H74.04V36.12H85.26ZM116.08 26.48C116.08 28.6 115.72 30.5667 115 32.38C114.293 34.1933 113.287 35.76 111.98 37.08C110.687 38.4 109.127 39.44 107.3 40.2C105.473 40.9467 103.447 41.32 101.22 41.32C98.9933 41.32 96.9667 40.9467 95.14 40.2C93.3133 39.44 91.7467 38.4 90.44 37.08C89.1333 35.76 88.12 34.1933 87.4 32.38C86.6933 30.5667 86.34 28.6 86.34 26.48C86.34 24.36 86.6933 22.4 87.4 20.6C88.12 18.7867 89.1333 17.22 90.44 15.9C91.7467 14.58 93.3133 13.5467 95.14 12.8C96.9667 12.04 98.9933 11.66 101.22 11.66C103.447 11.66 105.473 12.04 107.3 12.8C109.127 13.5467 110.687 14.5867 111.98 15.92C113.287 17.24 114.293 18.8067 115 20.62C115.72 22.42 116.08 24.3733 116.08 26.48ZM109.94 26.48C109.94 24.96 109.74 23.6 109.34 22.4C108.94 21.1867 108.36 20.16 107.6 19.32C106.853 18.4667 105.94 17.82 104.86 17.38C103.793 16.9267 102.58 16.7 101.22 16.7C99.86 16.7 98.64 16.9267 97.56 17.38C96.48 17.82 95.56 18.4667 94.8 19.32C94.0533 20.16 93.48 21.1867 93.08 22.4C92.68 23.6 92.48 24.96 92.48 26.48C92.48 28.0133 92.68 29.3867 93.08 30.6C93.48 31.8 94.0533 32.82 94.8 33.66C95.56 34.5 96.48 35.1467 97.56 35.6C98.64 36.04 99.86 36.26 101.22 36.26C102.58 36.26 103.793 36.04 104.86 35.6C105.94 35.1467 106.853 34.5 107.6 33.66C108.36 32.82 108.94 31.8 109.34 30.6C109.74 29.3867 109.94 28.0133 109.94 26.48ZM134.582 26.22H144.542V38.2C143.062 39.28 141.482 40.0733 139.802 40.58C138.135 41.0733 136.369 41.32 134.502 41.32C132.115 41.32 129.955 40.9533 128.022 40.22C126.089 39.4733 124.435 38.44 123.062 37.12C121.689 35.8 120.629 34.2333 119.882 32.42C119.135 30.6067 118.762 28.6267 118.762 26.48C118.762 24.3067 119.115 22.3133 119.822 20.5C120.542 18.6867 121.562 17.1267 122.882 15.82C124.202 14.5133 125.795 13.4933 127.662 12.76C129.542 12.0267 131.642 11.66 133.962 11.66C135.162 11.66 136.282 11.76 137.322 11.96C138.362 12.1467 139.322 12.4133 140.202 12.76C141.082 13.0933 141.889 13.4933 142.622 13.96C143.355 14.4267 144.022 14.94 144.622 15.5L142.882 18.18C142.615 18.6067 142.269 18.8667 141.842 18.96C141.415 19.0533 140.949 18.9467 140.442 18.64C139.962 18.3467 139.489 18.0867 139.022 17.86C138.569 17.62 138.082 17.4133 137.562 17.24C137.042 17.0667 136.475 16.9333 135.862 16.84C135.249 16.7467 134.542 16.7 133.742 16.7C132.395 16.7 131.175 16.9333 130.082 17.4C128.989 17.8667 128.055 18.5267 127.282 19.38C126.522 20.2333 125.935 21.26 125.522 22.46C125.109 23.66 124.902 25 124.902 26.48C124.902 28.08 125.129 29.5133 125.582 30.78C126.035 32.0333 126.675 33.0933 127.502 33.96C128.329 34.8267 129.315 35.4867 130.462 35.94C131.622 36.3933 132.909 36.62 134.322 36.62C135.282 36.62 136.135 36.5267 136.882 36.34C137.642 36.14 138.382 35.8733 139.102 35.54V30.66H135.822C135.435 30.66 135.129 30.56 134.902 30.36C134.689 30.1467 134.582 29.88 134.582 29.56V26.22ZM177.486 26.48C177.486 28.6 177.126 30.5667 176.406 32.38C175.7 34.1933 174.693 35.76 173.386 37.08C172.093 38.4 170.533 39.44 168.706 40.2C166.88 40.9467 164.853 41.32 162.626 41.32C160.4 41.32 158.373 40.9467 156.546 40.2C154.72 39.44 153.153 38.4 151.846 37.08C150.54 35.76 149.526 34.1933 148.806 32.38C148.1 30.5667 147.746 28.6 147.746 26.48C147.746 24.36 148.1 22.4 148.806 20.6C149.526 18.7867 150.54 17.22 151.846 15.9C153.153 14.58 154.72 13.5467 156.546 12.8C158.373 12.04 160.4 11.66 162.626 11.66C164.853 11.66 166.88 12.04 168.706 12.8C170.533 13.5467 172.093 14.5867 173.386 15.92C174.693 17.24 175.7 18.8067 176.406 20.62C177.126 22.42 177.486 24.3733 177.486 26.48ZM171.346 26.48C171.346 24.96 171.146 23.6 170.746 22.4C170.346 21.1867 169.766 20.16 169.006 19.32C168.26 18.4667 167.346 17.82 166.266 17.38C165.2 16.9267 163.986 16.7 162.626 16.7C161.266 16.7 160.046 16.9267 158.966 17.38C157.886 17.82 156.966 18.4667 156.206 19.32C155.46 20.16 154.886 21.1867 154.486 22.4C154.086 23.6 153.886 24.96 153.886 26.48C153.886 28.0133 154.086 29.3867 154.486 30.6C154.886 31.8 155.46 32.82 156.206 33.66C156.966 34.5 157.886 35.1467 158.966 35.6C160.046 36.04 161.266 36.26 162.626 36.26C163.986 36.26 165.2 36.04 166.266 35.6C167.346 35.1467 168.26 34.5 169.006 33.66C169.766 32.82 170.346 31.8 170.746 30.6C171.146 29.3867 171.346 28.0133 171.346 26.48Z" fill="#F6F7FC"/>
<circle cx="26.3889" cy="26.3889" r="26.3889" fill="#2B1088"/>
<path d="M19.4484 11.1114L13.8928 21.528H27.0873V11.1114H19.4484Z" fill="#FADFD7"/>
<path d="M33.3391 11.1114H19.4503L28.478 27.0836H42.3669L33.3391 11.1114Z" fill="white"/>
<path d="M32.6446 41.666L38.2001 31.2494H25.0057V41.666H32.6446Z" fill="#FADFD7"/>
<path d="M18.7583 41.666H32.6472L23.6194 25.6938H9.73051L18.7583 41.666Z" fill="white"/>
</svg>
